<?xml version="1.0" encoding="UTF-8"?>
<svg width="24px" height="24px" viewBox="0 0 24 24" version="1.1" xmlns="http://www.w3.org/2000/svg" xmlns:xlink="http://www.w3.org/1999/xlink">
    <title>icon_close</title>
    <g id="推送" stroke="none" stroke-width="1" fill="none" fill-rule="evenodd">
        <g id="安卓_高级功能_有信息样式" transform="translate(-208, -655)">
            <g id="编组-14" transform="translate(0, 527)">
                <g id="编组-13" transform="translate(32, 0)">
                    <g id="编组-11" transform="translate(32, 104)">
                        <g id="icon/base/关闭" transform="translate(144, 24)">
                            <rect id="Rectangle" fill="#D8D8D8" opacity="0" x="0" y="0" width="24" height="24"></rect>
                            <path d="M5.58132726,4.1709927 L5.63603897,4.22182541 L11.9999322,10.5849322 L18.363961,4.22182541 C18.7544853,3.83130112 19.3876503,3.83130112 19.7781746,4.22182541 C20.1509478,4.59459859 20.167892,5.18845555 19.8290073,5.58132726 L19.7781746,5.63603897 L13.4139322,11.9999322 L19.7781746,18.363961 C20.1686989,18.7544853 20.1686989,19.3876503 19.7781746,19.7781746 C19.4054014,20.1509478 18.8115445,20.167892 18.4186727,19.8290073 L18.363961,19.7781746 L11.9999322,13.4139322 L5.63603897,19.7781746 C5.24551468,20.1686989 4.6123497,20.1686989 4.22182541,19.7781746 C3.84905222,19.4054014 3.83210798,18.8115445 4.1709927,18.4186727 L4.22182541,18.363961 L10.5849322,11.9999322 L4.22182541,5.63603897 C3.83130112,5.24551468 3.83130112,4.6123497 4.22182541,4.22182541 C4.59459859,3.84905222 5.18845555,3.83210798 5.58132726,4.1709927 Z" id="形状结合" fill="#424FF7"></path>
                        </g>
                    </g>
                </g>
            </g>
        </g>
    </g>
</svg>