<svg xmlns="http://www.w3.org/2000/svg" xmlns:xlink="http://www.w3.org/1999/xlink" fill="none" version="1.1" width="20" height="20" viewBox="0 0 40 40"><g><path d="M33.5912,0L6.18785,0C2.65193,0,0,2.8,0,6.2L0,33.8C0,37.2,2.65193,40,6.18785,40L33.8122,40C37.1271,40,40,37.2,40,33.8L40,6.2C39.779,2.8,37.1271,0,33.5912,0ZM7.51392,10.6C7.51392,11.6,8.39789,12.2,9.28187,12.2C10.3868,12.2,11.0498,11.8,11.0498,10.8C11.0498,9.8,10.3868,9,9.28187,9C8.1769,9,7.51392,9.6,7.51392,10.6ZM16.3536,12.2L30.2763,12.2C31.3813,12.2,32.0443,11.6,32.0443,10.6C32.0443,9.6,31.1603,9,30.2763,9L16.3536,9C15.2487,9,14.5857,9.6,14.5857,10.6C14.5857,11.6,15.4697,12.2,16.3536,12.2ZM7.51392,19.9999C7.51392,20.9999,8.39789,21.5999,9.28187,21.5999C10.3868,21.5999,11.0498,20.7999,11.0498,19.9999C11.0498,19.1999,10.3868,18.3999,9.28187,18.3999C8.1769,18.3999,7.51392,18.9999,7.51392,19.9999ZM16.3536,21.5999L30.2763,21.5999C31.3813,21.5999,32.0443,20.9999,32.0443,19.9999C32.0443,18.9999,31.1603,18.3999,30.2763,18.3999L16.3536,18.3999C15.2487,18.3999,14.5857,18.9999,14.5857,19.9999C14.5857,20.9999,15.4697,21.5999,16.3536,21.5999ZM7.51392,29.2001C7.51392,30.2001,8.39789,30.8001,9.28187,30.8001C10.3868,30.8001,11.0498,30.0001,11.0498,29.2001C11.0498,28.4001,10.3868,27.6001,9.28187,27.6001C8.1769,27.6001,7.51392,28.2001,7.51392,29.2001ZM16.3536,30.8001L30.2763,30.8001C31.3813,30.8001,32.0443,30.2001,32.0443,29.2001C32.0443,28.2001,31.1603,27.6001,30.2763,27.6001L16.3536,27.6001C15.2487,27.6001,14.5857,28.2001,14.5857,29.2001C14.5857,30.2001,15.4697,30.8001,16.3536,30.8001Z" fill-rule="evenodd" fill="#FFFFFF" fill-opacity="1"/></g></svg>