<?xml version="1.0" encoding="UTF-8"?>
<svg width="48px" height="48px" viewBox="0 0 48 48" version="1.1" xmlns="http://www.w3.org/2000/svg" xmlns:xlink="http://www.w3.org/1999/xlink">
    <title>消息</title>
    <g id="推送" stroke="none" stroke-width="1" fill="none" fill-rule="evenodd">
        <g id="IOS推送_消息" transform="translate(-64, -578)">
            <g id="编组-5" transform="translate(32, 546)">
                <g id="编组-3" transform="translate(32, 32)">
                    <rect id="矩形" fill="#424FF7" x="0" y="0" width="48" height="48" rx="8"></rect>
                    <g id="编组" transform="translate(8, 8)" fill-rule="nonzero">
                        <path d="M19.7746312,29.8255859 C18.9939638,31.1715437 17.5558214,32 16,32 C14.4441786,32 13.0060362,31.1715437 12.2253688,29.8255859 C11.9641753,29.3755327 11.9632313,28.8202232 12.2228932,28.3692844 C12.4825551,27.9183455 12.9632734,27.6404604 13.4835792,27.6405293 L18.5164208,27.6405293 C19.0367266,27.6404604 19.5174449,27.9183455 19.7771068,28.3692844 C20.0367687,28.8202232 20.0358247,29.3755327 19.7746312,29.8255859 L19.7746312,29.8255859 Z" id="路径" fill="#4BF0CA"></path>
                        <path d="M16,0 C22.4267322,0 27.6366281,5.21056273 27.6366281,11.6381176 L27.6366281,18.9119411 C27.6366281,19.6835963 27.9431277,20.4236465 28.4887004,20.9692891 C29.0342732,21.5149317 29.7742287,21.8214705 30.5457851,21.8214705 C32.4847383,21.8214705 32.4847383,24.7309999 30.5457851,24.7309999 L1.45421488,24.7309999 C-0.484738292,24.7309999 -0.484738292,21.8214705 1.45421488,21.8214705 C2.2257713,21.8214705 2.96572678,21.5149317 3.51129956,20.9692891 C4.05687234,20.4236465 4.36337193,19.6835963 4.36337192,18.9119411 L4.36337192,11.6381176 C4.36337192,5.21056273 9.57326777,0 16,0 Z M16,2.90952939 C11.1799508,2.90952939 7.27252893,6.81745144 7.27252893,11.6381176 L7.27252893,18.9119411 C7.27252893,19.9724645 6.98888612,20.9660688 6.49432942,21.8214705 L25.5056706,21.8214705 C24.994375,20.937186 24.7259056,19.9334335 24.7274711,18.9119411 L24.7274711,11.6381176 C24.7274711,6.81745144 20.8200492,2.90952939 16,2.90952939 Z" id="形状结合" fill="#FFFFFF"></path>
                    </g>
                </g>
            </g>
        </g>
    </g>
</svg>