<svg xmlns="http://www.w3.org/2000/svg" xmlns:xlink="http://www.w3.org/1999/xlink" fill="none" version="1.1" width="18" height="18" viewBox="0 0 18 18"><g><g><path d="M9,1.125C4.657500000000001,1.125,1.125,4.657500000000001,1.125,9C1.125,13.3425,4.657500000000001,16.875,9,16.875C13.3425,16.875,16.875,13.3425,16.875,9C16.875,4.657500000000001,13.3425,1.125,9,1.125ZM8.98047,4.68677C9.44622,4.68677,9.82422,5.06477,9.82422,5.53052C9.82422,5.99683,9.44622,6.37427,8.98047,6.37427C8.51472,6.37427,8.13672,5.99683,8.13672,5.53052C8.13672,5.06477,8.51472,4.68677,8.98047,4.68677ZM10.4625,13.5C10.58681,13.5,10.6875,13.3993,10.6875,13.275L10.6875,12.6C10.6875,12.4757,10.58681,12.375,10.4625,12.375L9.5625,12.375L9.5625,7.5375C9.5625,7.41319,9.46181,7.3125,9.3375,7.3125L8.1,7.3125C7.97625,7.3125,7.875,7.41319,7.875,7.5375L7.875,8.2125C7.875,8.33681,7.97569,8.4375,8.1,8.4375L8.4375,8.4375L8.4375,12.375L7.5375,12.375C7.41319,12.375,7.3125,12.4757,7.3125,12.6L7.3125,13.275C7.3125,13.3993,7.41319,13.5,7.5375,13.5L10.4625,13.5Z" fill-rule="evenodd" fill="#1B58F4" fill-opacity="1"/></g></g></svg>