<svg xmlns="http://www.w3.org/2000/svg" xmlns:xlink="http://www.w3.org/1999/xlink" fill="none" version="1.1" width="24.004730224609375" height="24" viewBox="0 0 24.004730224609375 24"><g><g><path d="M17.59078342514038,16.52659365196228L22.17948342514038,21.11429365196228C22.29648342514038,21.23129365196228,22.29648342514038,21.42109365196228,22.17948342514038,21.53879365196228L21.54338342514038,22.17479365196228C21.42558342514038,22.29179365196228,21.23578342514038,22.29179365196228,21.118783425140382,22.17479365196228L16.530083425140383,17.58709365196228C15.00658342514038,18.857593651962283,13.130483425140381,19.49659365196228,11.25283342514038,19.49659365196228C9.13967342514038,19.49659365196228,7.026503425140381,18.69259365196228,5.418183425140381,17.08379365196228C2.1235394251403807,13.789793651962281,2.202304425140381,8.381573651962281,5.655233425140381,5.188823651962281C8.729343425140382,2.3463236519622805,13.61358342514038,2.29982365196228,16.73868342514038,5.0868236519622805C20.10978342514038,8.09432365196228,20.39108342514038,13.16879365196228,17.59078342514038,16.52659365196228ZM6.479463425140381,6.47732365196228C3.8471914251403807,9.10907365196228,3.8471914251403807,13.39159365196228,6.479463425140381,16.02329365196228C9.111723425140381,18.655093651962282,13.395783425140381,18.65579365196228,16.02738342514038,16.02329365196228C18.659583425140383,13.39159365196228,18.659583425140383,9.10907365196228,16.02738342514038,6.47732365196228C14.71158342514038,5.16182365196228,12.98248342514038,4.503323651962281,11.25339342514038,4.503323651962281C9.524303425140381,4.503323651962281,7.795213425140381,5.16182365196228,6.479463425140381,6.47732365196228Z" fill-rule="evenodd" fill="#809FB8" fill-opacity="1"/></g></g></svg>