<svg xmlns="http://www.w3.org/2000/svg" xmlns:xlink="http://www.w3.org/1999/xlink" fill="none" version="1.1" width="16" height="16" viewBox="0 0 16 16"><g><g><path d="M10.00577,2.4493194999694823L12.5513,4.994814499969483C12.6293,5.072814499969482,12.7563,5.072814499969482,12.8343,4.994814499969483L13.2583,4.5703144999694825C13.3363,4.492324499969483,13.3363,4.365814499969483,13.2583,4.287814499969482L10.71277,1.7423194999694824C10.63477,1.6638194999694824,10.50827,1.6638194999694824,10.43027,1.7423194999694824L10.00577,2.1663194999694824C9.927769999999999,2.2448194999694824,9.927769999999999,2.3708194999694823,10.00577,2.4493194999694823ZM3.2,12.000144499969483L5.6625,12.000144499969483C5.7684999999999995,12.000144499969483,5.8705,11.958144499969482,5.945,11.883144499969482L11.8435,5.984624499969482C11.922,5.906124499969483,11.922,5.7801244999694825,11.8435,5.7016244999694825L9.298,3.1566244999694826C9.219999999999999,3.0781244999694826,9.093,3.0781244999694826,9.015,3.1566244999694826L3.117,9.054624499969481C3.042,9.129624499969482,3,9.231124499969482,3,9.337624499969483L3,11.800144499969482C3,11.910644499969482,3.0895,12.000144499969483,3.2,12.000144499969483ZM2.2005,14.000144499969483L13.8,14.000144499969483C13.911,14.000144499969483,14,13.910544499969483,14,13.800144499969482L14,13.200144499969483C14,13.089644499969483,13.911,13.000144499969483,13.8,13.000144499969483L2.2005,13.000144499969483C2.0895,13.000144499969483,2,13.089644499969483,2,13.200144499969483L2,13.800144499969482C2,13.910544499969483,2.0895,14.000144499969483,2.2005,14.000144499969483Z" fill-rule="evenodd" fill="#A6A6A6" fill-opacity="1"/></g></g></svg>