<svg xmlns="http://www.w3.org/2000/svg" xmlns:xlink="http://www.w3.org/1999/xlink" fill="none" version="1.1" width="24" height="24" viewBox="0 0 24 24"><g><g><path d="M1.5000998973846436,11.999722123146057C1.5000998973846436,6.209722123146057,6.2100998973846435,1.4997221231460571,12.000099897384644,1.4997221231460571C17.790099897384643,1.4997221231460571,22.500099897384644,6.209722123146057,22.500099897384644,11.999722123146057C22.500099897384644,17.789722123146056,17.790099897384643,22.499722123146057,12.000099897384644,22.499722123146057C6.2100998973846435,22.499722123146057,1.5000998973846436,17.789722123146056,1.5000998973846436,11.999722123146057ZM10.622129897384644,16.030222123146057L17.091599897384643,9.559962123146057C17.208599897384644,9.442962123146057,17.208599897384644,9.253212123146056,17.091599897384643,9.136212123146057L16.454899897384642,8.499462123146056C16.337899897384645,8.382462123146057,16.148099897384643,8.382462123146057,16.031099897384642,8.499462123146056L10.409879897384643,14.121422123146058L7.970129897384644,11.681722123146058C7.853129897384644,11.563922123146057,7.663379897384644,11.563922123146057,7.545629897384644,11.681722123146058L6.909629897384644,12.317722123146057C6.792629897384644,12.434722123146058,6.792629897384644,12.624422123146058,6.909629897384644,12.742222123146057L10.197629897384644,16.030222123146057C10.314629897384643,16.147222123146058,10.505129897384643,16.147222123146058,10.622129897384644,16.030222123146057Z" fill-rule="evenodd" fill="#424FF7" fill-opacity="1"/></g></g></svg>