<?xml version="1.0" encoding="UTF-8"?>
<svg width="32px" height="32px" viewBox="0 0 32 32" version="1.1" xmlns="http://www.w3.org/2000/svg" xmlns:xlink="http://www.w3.org/1999/xlink">
    <title>Icon_shuoming</title>
    <g id="推送" stroke="none" stroke-width="1" fill="none" fill-rule="evenodd">
        <g id="安卓_高级功能" transform="translate(-32, -475)" fill="#315CFC">
            <g id="编组-7" transform="translate(32, 471)">
                <g id="编组-13" transform="translate(0, 4)">
                    <g id="Icon-图标/Status/checkmark--outline备份-7" transform="translate(2, 2)">
                        <path d="M14,0 C21.72,0 28,6.28 28,14 C28,21.72 21.72,28 14,28 C6.28,28 0,21.72 0,14 C0,6.28 6.28,0 14,0 Z M14,2 C7.383,2 2,7.383 2,14 C2,20.617 7.383,26 14,26 C20.617,26 26,20.617 26,14 C26,7.383 20.617,2 14,2 Z M14.6,11 C14.821,11 15,11.179 15,11.4 L15,20 L16.6,20 C16.821,20 17,20.179 17,20.4 L17,21.6 C17,21.821 16.821,22 16.6,22 L11.4,22 C11.179,22 11,21.821 11,21.6 L11,20.4 C11,20.179 11.179,20 11.4,20 L13,20 L13,13 L12.4,13 C12.179,13 12,12.821 12,12.6 L12,11.4 C12,11.179 12.179,11 12.4,11 Z M13.9648,6.332 C14.7928,6.332 15.4648,7.004 15.4648,7.832 C15.4648,8.661 14.7928,9.332 13.9648,9.332 C13.1368,9.332 12.4648,8.661 12.4648,7.832 C12.4648,7.004 13.1368,6.332 13.9648,6.332 Z" id="形状结合"></path>
                    </g>
                </g>
            </g>
        </g>
    </g>
</svg>