<svg xmlns="http://www.w3.org/2000/svg" xmlns:xlink="http://www.w3.org/1999/xlink" fill="none" version="1.1" width="18" height="18" viewBox="0 0 18 18"><g><g><path d="M1.125,8.999899983406067C1.125,4.6573999834060675,4.657500000000001,1.124899983406067,9,1.124899983406067C13.3425,1.124899983406067,16.875,4.6573999834060675,16.875,8.999899983406067C16.875,13.341799983406068,13.3425,16.874899983406067,9,16.874899983406067C4.657500000000001,16.874899983406067,1.125,13.341799983406068,1.125,8.999899983406067ZM11.943,12.420299983406068L12.4206,11.942799983406067C12.5083,11.854999983406067,12.5083,11.712699983406067,12.4206,11.624999983406067L9.79425,8.998089983406068L12.4116,6.363339983406067C12.4999,6.275029983406067,12.4993,6.132719983406067,12.4104,6.044969983406067L11.9323,5.569089983406067C11.844,5.481899983406067,11.7017,5.482469983406067,11.6134,5.570219983406067L8.99888,8.202719983406066L6.37481,5.579219983406067C6.28706,5.4908999834060666,6.14475,5.4908999834060666,6.057,5.579219983406067L5.57944,6.056219983406067C5.49169,6.143969983406067,5.49169,6.286279983406067,5.57944,6.374589983406067L8.20575,9.000899983406068L5.58844,11.636199983406067C5.50013,11.723999983406067,5.50069,11.866299983406067,5.589,11.953999983406067L6.06769,12.429899983406067C6.156,12.517099983406068,6.29831,12.517099983406068,6.38606,12.428799983406067L9.00113,9.796279983406066L11.6252,12.420299983406068C11.7129,12.508099983406067,11.8553,12.508099983406067,11.943,12.420299983406068Z" fill-rule="evenodd" fill="#C82727" fill-opacity="1"/></g></g></svg>