<svg xmlns="http://www.w3.org/2000/svg" xmlns:xlink="http://www.w3.org/1999/xlink" fill="none" version="1.1" width="10.399686813354492" height="10.399999618530273" viewBox="0 0 10.399686813354492 10.399999618530273"><g><path d="M10.3266,0.60375L9.79656,0.073125C9.69906,-0.024375,9.54031,-0.024375,9.44281,0.073125L5.20031,4.31625L0.957813,0.073125C0.860313,-0.024375,0.701562,-0.024375,0.603437,0.073125L0.0740625,0.60375C-0.0246875,0.70125,-0.0246875,0.859375,0.0740625,0.956875L4.31656,5.2L0.0740625,9.44312C-0.0246875,9.54063,-0.0246875,9.69875,0.0740625,9.79625L0.603437,10.3269C0.701562,10.4244,0.860313,10.4244,0.957813,10.3269L5.20031,6.08375L9.44281,10.3269C9.54031,10.4244,9.69906,10.4244,9.79656,10.3269L10.3266,9.79625C10.4241,9.69875,10.4241,9.54063,10.3266,9.44312L6.08406,5.2L10.3266,0.956875C10.4241,0.859375,10.4241,0.70125,10.3266,0.60375L10.3266,0.60375Z" fill-rule="evenodd" fill="#B6C1D3" fill-opacity="1"/></g></svg>