<svg xmlns="http://www.w3.org/2000/svg" xmlns:xlink="http://www.w3.org/1999/xlink" fill="none" version="1.1" width="24" height="24" viewBox="0 0 24 24"><defs><clipPath id="master_svg0_61_5103"><rect x="0" y="0" width="24" height="24" rx="0"/></clipPath></defs><g clip-path="url(#master_svg0_61_5103)"><g><rect x="0" y="0" width="24" height="24" rx="0" fill="#FFFFFF" fill-opacity="0.009999999776482582"/></g><g><path d="M7.5,7.00006103515625C7.5,4.238831035156251,9.73859,2.00006103515625,12.5,2.00006103515625C15.2614,2.00006103515625,17.5,4.238831035156251,17.5,7.00006103515625C17.5,9.761291035156251,15.2615,12.00006103515625,12.5,12.00006103515625C9.73859,12.00006103515625,7.5,9.761291035156251,7.5,7.00006103515625ZM9.5,7.00006103515625C9.5,8.65680103515625,10.84314,10.00006103515625,12.5,10.00006103515625C14.1569,10.00006103515625,15.5,8.65680103515625,15.5,7.00006103515625C15.5,5.34332103515625,14.1569,4.00006103515625,12.5,4.00006103515625C10.84314,4.00006103515625,9.5,5.34332103515625,9.5,7.00006103515625ZM19.5,19.00006103515625L19.5,21.00006103515625C19.5,21.35746103515625,19.6906,21.68756103515625,20,21.86626103515625C20.3094,22.04446103515625,20.6906,22.04446103515625,21,21.86626103515625C21.3094,21.68756103515625,21.5,21.35746103515625,21.5,21.00006103515625L21.5,19.00006103515625C21.5,16.238861035156248,19.261400000000002,14.00006103515625,16.5,14.00006103515625L8.5,14.00006103515625C5.73859,14.00006103515625,3.5,16.238861035156248,3.5,19.00006103515625L3.5,21.00006103515625C3.5,21.35746103515625,3.690613,21.68756103515625,4,21.86626103515625C4.309387,22.04446103515625,4.6906099999999995,22.04446103515625,5,21.86626103515625C5.3093900000000005,21.68756103515625,5.5,21.35746103515625,5.5,21.00006103515625L5.5,19.00006103515625C5.5,17.34336103515625,6.84314,16.00006103515625,8.5,16.00006103515625L16.5,16.00006103515625C18.1569,16.00006103515625,19.5,17.34336103515625,19.5,19.00006103515625Z" fill-rule="evenodd" fill="#85A3BB" fill-opacity="1"/></g></g></svg>