<svg xmlns="http://www.w3.org/2000/svg" xmlns:xlink="http://www.w3.org/1999/xlink" fill="none" version="1.1" width="24" height="24" viewBox="0 0 24 24"><defs><clipPath id="master_svg0_61_5131"><rect x="0" y="0" width="24" height="24" rx="0"/></clipPath></defs><g clip-path="url(#master_svg0_61_5131)"><g><path d="M2,10C2,10.55225,2.4477539999999998,11,3,11L10,11C10.55225,11,11,10.55225,11,10L11,3C11,2.4477539999999998,10.55225,2,10,2L3,2C2.4477539999999998,2,2,2.4477539999999998,2,3L2,10ZM14,11C13.4478,11,13,10.55225,13,10L13,3C13,2.4477539999999998,13.4478,2,14,2L21,2C21.5522,2,22,2.4477539999999998,22,3L22,10C22,10.55225,21.5522,11,21,11L14,11ZM4,9L9,9L9,4L4,4L4,9ZM15,9L20,9L20,4L15,4L15,9ZM2,21C2,21.5522,2.4477539999999998,22,3,22L10,22C10.55225,22,11,21.5522,11,21L11,14C11,13.4478,10.55225,13,10,13L3,13C2.4477539999999998,13,2,13.4478,2,14L2,21ZM14,22C13.4478,22,13,21.5522,13,21L13,14C13,13.4478,13.4478,13,14,13L21,13C21.5522,13,22,13.4478,22,14L22,21C22,21.5522,21.5522,22,21,22L14,22ZM4,20L9,20L9,15L4,15L4,20ZM15,20L20,20L20,15L15,15L15,20Z" fill-rule="evenodd" fill="#85A3BB" fill-opacity="1"/></g><g><rect x="0" y="0" width="24" height="24" rx="0" fill="#FFFFFF" fill-opacity="0.009999999776482582"/></g></g></svg>