<svg xmlns="http://www.w3.org/2000/svg" xmlns:xlink="http://www.w3.org/1999/xlink" fill="none" version="1.1" width="24" height="24" viewBox="0 0 24 24"><defs><clipPath id="master_svg0_61_5108"><rect x="0" y="0" width="24" height="24" rx="0"/></clipPath></defs><g clip-path="url(#master_svg0_61_5108)"><g><rect x="0" y="0" width="24" height="24" rx="0" fill="#FFFFFF" fill-opacity="0.009999999776482582"/></g><g><path d="M24,0L0,0L0,24L24,24L24,0Z" fill="#FFFFFF" fill-opacity="0.009999999776482582"/></g><g><path d="M12.50702,1.138063Q12.39176,1.0702660000000002,12.26274,1.035133Q12.13372,1,12,1Q11.86628,1,11.73726,1.035134Q11.60824,1.070268,11.49298,1.138066L2.99298,6.13807Q2.880395,6.20429,2.788597,6.29721Q2.6968,6.39014,2.63195,6.50352Q2.567101,6.61691,2.533551,6.74314Q2.5,6.86938,2.5,7L2.5,17Q2.5,17.1306,2.533551,17.2569Q2.567101,17.3831,2.63195,17.496499999999997Q2.6968,17.6099,2.788597,17.7028Q2.880395,17.7957,2.99298,17.8619L11.49298,22.8619Q11.60824,22.9297,11.73726,22.9649Q11.86628,23,12,23Q12.13372,23,12.26274,22.9649Q12.39176,22.9297,12.50702,22.8619L16.7571,20.3619L21.007,17.8619Q21.1196,17.7957,21.2114,17.7028Q21.3032,17.6099,21.3681,17.496499999999997Q21.4329,17.3831,21.4665,17.2569Q21.5,17.1306,21.5,17L21.5,7Q21.5,6.86938,21.4665,6.74314Q21.4329,6.61691,21.3681,6.50352Q21.3032,6.39014,21.2114,6.29722Q21.1196,6.2043,21.007,6.13807L16.7571,3.63807L12.50702,1.138063ZM12,3.16018L8.25702,5.36193L4.5,7.57195L4.5,16.4281L8.25702,18.6381L12,20.8398L15.743,18.6381L19.5,16.4281L19.5,7.57194L15.743,5.36193L12,3.16018Z" fill-rule="evenodd" fill="#85A3BB" fill-opacity="1"/></g><g><path d="M21.007,7.861934Q21.1196,7.795707,21.2114,7.702784Q21.3032,7.609861,21.368,7.496477Q21.4329,7.383093,21.4664,7.256856Q21.5,7.130619,21.5,7Q21.5,6.9015086,21.4808,6.80491Q21.4616,6.708311,21.4239,6.617317Q21.3862,6.526322,21.3315,6.44443Q21.2767,6.362537,21.2071,6.292893Q21.1375,6.223249,21.0556,6.16853Q20.9737,6.113812,20.8827,6.076121Q20.7917,6.03843,20.6951,6.019215Q20.5985,6,20.5,6Q20.2277,6,19.993,6.138066L2.99298,16.13807Q2.880395,16.20429,2.788597,16.29722Q2.6968,16.390140000000002,2.63195,16.50352Q2.567101,16.61691,2.53355,16.74314Q2.5,16.86938,2.5,17Q2.5,17.0985,2.519215,17.1951Q2.53843,17.2917,2.576121,17.3827Q2.6138120000000002,17.4737,2.66853,17.5556Q2.723249,17.6375,2.792893,17.7071Q2.862537,17.776699999999998,2.94443,17.8315Q3.026322,17.886200000000002,3.117317,17.9239Q3.208311,17.9616,3.30491,17.980800000000002Q3.4015086,18,3.5,18Q3.7723079999999998,18,4.00702,17.8619L21.007,7.861934L21.007,7.861934Z" fill-rule="evenodd" fill="#85A3BB" fill-opacity="1"/></g><g><path d="M11,2Q11,1.9015086,11.019214999999999,1.80491Q11.03843,1.7083110000000001,11.076121,1.617317Q11.113812,1.526322,11.16853,1.44443Q11.223249,1.362537,11.292893,1.2928929999999998Q11.362537,1.223249,11.44443,1.16853Q11.526322,1.113812,11.617317,1.076121Q11.708311,1.03843,11.80491,1.019215Q11.9015086,1,12,1Q12.0984914,1,12.19509,1.019215Q12.291689,1.03843,12.382683,1.076121Q12.473678,1.113812,12.55557,1.16853Q12.637463,1.223249,12.707107,1.2928929999999998Q12.776751,1.362537,12.83147,1.44443Q12.886188,1.526322,12.923879,1.617317Q12.96157,1.7083110000000001,12.980785000000001,1.80491Q13,1.9015086,13,2L13,22Q13,22.0985,12.980785000000001,22.1951Q12.96157,22.2917,12.923879,22.3827Q12.886188,22.4737,12.83147,22.5556Q12.776751,22.6375,12.707107,22.7071Q12.637463,22.7767,12.55557,22.8315Q12.473678,22.8862,12.382683,22.9239Q12.291689,22.9616,12.19509,22.9808Q12.0984914,23,12,23Q11.9015086,23,11.80491,22.9808Q11.708311,22.9616,11.617317,22.9239Q11.526322,22.8862,11.44443,22.8315Q11.362537,22.7767,11.292893,22.7071Q11.223249,22.6375,11.16853,22.5556Q11.113812,22.4737,11.076121,22.3827Q11.03843,22.2917,11.019214999999999,22.1951Q11,22.0985,11,22L11,2Z" fill-rule="evenodd" fill="#85A3BB" fill-opacity="1"/></g><g><path d="M4.00702,6.138066L21.007,16.13807Q21.1196,16.20429,21.2114,16.29721Q21.3032,16.390140000000002,21.368,16.50352Q21.4329,16.61691,21.4664,16.74314Q21.5,16.86938,21.5,17Q21.5,17.0985,21.4808,17.1951Q21.4616,17.2917,21.4239,17.3827Q21.3862,17.4737,21.3315,17.5556Q21.2767,17.6375,21.2071,17.7071Q21.1375,17.776699999999998,21.0556,17.8315Q20.9737,17.886200000000002,20.8827,17.9239Q20.7917,17.9616,20.6951,17.980800000000002Q20.5985,18,20.5,18Q20.2277,18,19.993,17.8619L2.99298,7.861934Q2.880395,7.795707,2.788597,7.702785Q2.6968,7.609862,2.63195,7.496478Q2.567101,7.383093,2.533551,7.256856Q2.5,7.130619,2.5,7Q2.5,6.9015086,2.519215,6.80491Q2.53843,6.708311,2.576121,6.617317Q2.6138120000000002,6.526322,2.66853,6.44443Q2.723249,6.362537,2.792893,6.292893Q2.862537,6.223249,2.94443,6.16853Q3.026322,6.113812,3.117317,6.076121Q3.208311,6.03843,3.30491,6.019215Q3.4015086,6,3.5,6Q3.7723079999999998,6,4.00702,6.138066Z" fill-rule="evenodd" fill="#85A3BB" fill-opacity="1"/></g></g></svg>