<svg xmlns="http://www.w3.org/2000/svg" xmlns:xlink="http://www.w3.org/1999/xlink" fill="none" version="1.1" width="24" height="24" viewBox="0 0 24 24"><g><g><path d="M12,22.5C6.21,22.5,1.5,17.79,1.5,12C1.5,6.21,6.21,1.5,12,1.5C17.79,1.5,22.5,6.21,22.5,12C22.5,17.79,17.79,22.5,12,22.5ZM12,3C7.03725,3,3,7.03725,3,12C3,16.9628,7.03725,21,12,21C16.9628,21,21,16.9628,21,12C21,7.03725,16.9628,3,12,3ZM6.90863,12.7425L10.19662,16.0305C10.31363,16.1475,10.50338,16.1475,10.62037,16.0305L17.090600000000002,9.56024C17.2076,9.44324,17.2076,9.25349,17.090600000000002,9.13649L16.4539,8.49974C16.3369,8.38274,16.147100000000002,8.38274,16.030099999999997,8.49974L10.40887,14.1217L7.96912,11.682C7.85213,11.5642,7.66237,11.5642,7.54462,11.682L6.90863,12.318C6.79087,12.4357,6.79087,12.6247,6.90863,12.7425Z" fill-rule="evenodd" fill="#98A4BA" fill-opacity="1"/></g></g></svg>