<?xml version="1.0" encoding="UTF-8"?>
<svg width="24px" height="24px" viewBox="0 0 48 48" version="1.1" xmlns="http://www.w3.org/2000/svg" xmlns:xlink="http://www.w3.org/1999/xlink">
    <title>设置</title>
    <g id="推送" stroke="none" stroke-width="1" fill="none" fill-rule="evenodd">
        <g id="IOS推送_消息" transform="translate(-352, -1965)" fill="#ADC1D1" fill-rule="nonzero">
            <g id="编组-12" transform="translate(0, 1941)">
                <g id="容器-106" transform="translate(325, 24)">
                    <g id="编组-7" transform="translate(27, 0)">
                        <path d="M27.2744063,3.43231859 C27.3799472,6.15720886 28.8575198,8.62009045 31.1794195,9.93013388 C33.5013193,11.292579 36.4036939,11.3449808 38.7783641,10.0873391 C40.6781002,12.1834085 42.1029024,14.6986918 43,17.3711804 C39.3060686,19.6768568 38.2506596,24.5502182 40.5725594,28.2183398 C41.2058047,29.2139727 42.0501319,30 43,30.6288196 C42.5250659,31.9912647 41.944591,33.2489064 41.2585752,34.5065481 C40.5725594,35.711788 39.7282322,36.8646262 38.7783641,37.9126609 C34.9261213,35.9213949 30.1240106,37.3886436 28.1187335,41.2139703 C27.591029,42.262005 27.2744063,43.3624415 27.2216359,44.5676814 C24.4371433,45.1441062 21.5628567,45.1441062 18.7783641,44.5676814 C18.6200528,40.2183373 14.9261214,36.8646262 10.5989446,37.0218314 C9.43799472,37.0742331 8.27704484,37.3886436 7.22163589,37.9126609 C5.32189975,35.8165915 3.89709763,33.3013082 3,30.6288196 C6.69393139,28.3231432 7.80211083,23.5021835 5.48021108,19.834062 C4.8469657,18.838429 4.00263851,18 3.05277044,17.3711804 C3.47493401,16.0087353 4.05540895,14.7510936 4.79419526,13.5458537 C5.48021108,12.3406137 6.32453826,11.1877755 7.27440633,10.0873391 C11.1266491,12.0786051 15.9287599,10.6113564 17.9340369,6.78602969 C18.4617414,5.73799499 18.7783641,4.63755852 18.8311346,3.43231859 C21.6156272,2.8558938 24.4899137,2.8558938 27.2744063,3.43231859 Z M23,16.1659405 C18.6200528,16.1659405 15.0844327,19.6768568 15.0844327,24.0262009 C15.0844327,28.3755449 18.6200528,31.8864613 23,31.8864613 C27.3799472,31.8864613 30.9155673,28.3755449 30.9155673,24.0262009 C30.9155673,19.6768568 27.3799472,16.1659405 23,16.1659405 Z M23,18.2620099 C26.2189974,18.2620099 28.8047493,20.8296949 28.8047493,24.0262009 C28.8047493,27.2227068 26.2189974,29.7903918 23,29.7903918 C19.7810026,29.7903918 17.1952506,27.2227068 17.1952506,24.0262009 C17.1952506,20.8296949 19.7810026,18.2620099 23,18.2620099 Z" id="形状结合"></path>
                    </g>
                </g>
            </g>
        </g>
    </g>
</svg>