<svg xmlns="http://www.w3.org/2000/svg" xmlns:xlink="http://www.w3.org/1999/xlink" fill="none" version="1.1" width="21" height="18" viewBox="0 0 42 36"><g><path d="M5.59869,0L36.3984,0C39.4952,0,42,2.51051,42,5.60425L42,23.9442C42,27.0322,39.4952,29.5401,36.3984,29.5401L29.9941,29.5401C29.9941,29.5401,29.9913,35.0067,30.0001,35.5401C30.0118,36.0732,29.6544,36.2285,28.7696,35.5401C27.8849,34.8486,21.3634,29.5401,21.3634,29.5401L5.59869,29.5401C2.50788,29.5401,0,27.0322,0,23.9443L0,5.60425C0,2.51056,2.50792,0,5.59869,0ZM9.00024,15C9.00024,16.6612,10.3449,18,12.0002,18C13.6555,18,15.0002,16.6612,15.0002,15C15.0002,13.339,13.6554,12,12.0002,12C10.3449,12,9.00024,13.3389,9.00024,15ZM21,18C19.3447,18,18,16.6612,18,15C18,13.3389,19.3447,12,21,12C22.6553,12,24,13.339,24,15C24,16.6612,22.6552,18,21,18ZM27.0002,15C27.0002,16.6612,28.345,18,30.0002,18C31.6554,18,33.0002,16.6612,33.0002,15C33.0002,13.339,31.6554,12,30.0002,12C28.345,12,27.0002,13.3389,27.0002,15Z" fill-rule="evenodd" fill="#FFFFFF" fill-opacity="1"/></g></svg>