<svg xmlns="http://www.w3.org/2000/svg" xmlns:xlink="http://www.w3.org/1999/xlink" fill="none" version="1.1" width="24" height="24" viewBox="0 0 24 24"><g><g><path d="M12,1.5C6.21,1.5,1.5,6.21,1.5,12C1.5,17.79,6.21,22.5,12,22.5C17.79,22.5,22.5,17.79,22.5,12C22.5,6.21,17.79,1.5,12,1.5ZM12,21C7.03725,21,3,16.9628,3,12C3,7.03725,7.03725,3,12,3C16.9628,3,21,7.03725,21,12C21,16.9628,16.9628,21,12,21ZM11.5305,6.00148L12.4305,5.99848C12.5963,5.99773,12.7305,6.13198,12.7313,6.29698L12.7477,11.24998L17.7,11.24998C17.8657,11.24998,18,11.38423,18,11.55L18,12.45C18,12.6157,17.8657,12.75,17.7,12.75L12.753,12.75L12.7687,17.6977C12.7695,17.8627,12.6353,17.9977,12.4703,17.9985L11.5702,18.0015C11.4045,18.0022,11.2695,17.868,11.26875,17.7022L11.253,12.75L6.3,12.75C6.13425,12.75,6,12.6157,6,12.45L6,11.55C6,11.38423,6.13425,11.24998,6.3,11.24998L11.24775,11.24998L11.23125,6.30223C11.2305,6.13723,11.36475,6.00223,11.5305,6.00148Z" fill-rule="evenodd" fill="#2A313D" fill-opacity="1"/></g></g></svg>