<svg xmlns="http://www.w3.org/2000/svg" xmlns:xlink="http://www.w3.org/1999/xlink" fill="none" version="1.1" width="32" height="32" viewBox="0 0 32 32"><g><g><path d="M8.000100135803223,4.8L8.000100135803223,23.2C8.000100135803223,23.642,8.358100135803223,24,8.800100135803223,24L27.200100135803222,24C27.642100135803222,24,28.000100135803223,23.642,28.000100135803223,23.2L28.000100135803223,4.8C28.000100135803223,4.358,27.642100135803222,4,27.200100135803222,4L8.800100135803223,4C8.358100135803223,4,8.000100135803223,4.358,8.000100135803223,4.8ZM10.000100135803223,22L26.000100135803223,22L26.000100135803223,6L10.000100135803223,6L10.000100135803223,22ZM4.400100135803223,12L5.600100135803222,12C5.821100135803222,12,6.000100135803223,12.179,6.000100135803223,12.4L6.000100135803223,26L19.600100135803224,26C19.82110013580322,26,20.000100135803223,26.179,20.000100135803223,26.4L20.000100135803223,27.6C20.000100135803223,27.821,19.82110013580322,28,19.600100135803224,28L4.8001001358032225,28C4.358100135803222,28,4.000100135803223,27.642,4.000100135803223,27.2L4.000100135803223,12.4C4.000100135803223,12.179,4.179100135803223,12,4.400100135803223,12Z" fill-rule="evenodd" fill="#424FF7" fill-opacity="1"/></g></g></svg>