<?xml version="1.0" encoding="UTF-8"?>
<svg width="36px" height="36px" viewBox="0 0 36 36" version="1.1" xmlns="http://www.w3.org/2000/svg" xmlns:xlink="http://www.w3.org/1999/xlink">
    <title>icon_pop_close</title>
    <g id="推送" stroke="none" stroke-width="1" fill="none" fill-rule="evenodd">
        <g id="高级功能_未绑定账号_绑定账号" transform="translate(-682, -1053)" fill="#1F2024">
            <g id="编组-9" transform="translate(0, 1006)">
                <g id="编组-11" transform="translate(682, 47)">
                    <g id="Icon-图标/Navigation/chevron--up" transform="translate(8.64, 8.64)">
                        <path d="M18.5878125,1.08675 L17.6338125,0.131625 C17.4583125,-0.043875 17.1725625,-0.043875 16.9970625,0.131625 L9.3605625,7.76925 L1.7240625,0.131625 C1.5485625,-0.043875 1.2628125,-0.043875 1.0861875,0.131625 L0.1333125,1.08675 C-0.0444375,1.26225 -0.0444375,1.546875 0.1333125,1.722375 L7.7698125,9.36 L0.1333125,16.997625 C-0.0444375,17.173125 -0.0444375,17.45775 0.1333125,17.63325 L1.0861875,18.588375 C1.2628125,18.763875 1.5485625,18.763875 1.7240625,18.588375 L9.3605625,10.95075 L16.9970625,18.588375 C17.1725625,18.763875 17.4583125,18.763875 17.6338125,18.588375 L18.5878125,17.63325 C18.7633125,17.45775 18.7633125,17.173125 18.5878125,16.997625 L10.9513125,9.36 L18.5878125,1.722375 C18.7633125,1.546875 18.7633125,1.26225 18.5878125,1.08675" id="Fill-1"></path>
                    </g>
                </g>
            </g>
        </g>
    </g>
</svg>