<?xml version="1.0" encoding="UTF-8"?>
<svg width="28px" height="28px" viewBox="0 0 100 100" version="1.1" xmlns="http://www.w3.org/2000/svg" xmlns:xlink="http://www.w3.org/1999/xlink">
    <title>icon_loading_success</title>
    <g id="监控" stroke="none" stroke-width="1" fill="none" fill-rule="evenodd">
        <g id="IOS-监控-测页面加载" transform="translate(-326, -362)" fill="#29A64E">
            <g id="编组" transform="translate(260, 362)">
                <g id="编组-3" transform="translate(66, 0)">
                    <g id="Icon-图标/Status/checkmark--outline备份" transform="translate(6.2503, 6.2488)">
                        <path d="M64.9625,33.584375 L38.00625,60.54375 C37.51875,61.03125 36.725,61.03125 36.2375,60.54375 L22.5375,46.84375 C22.05,46.353125 22.05,45.5625 22.5375,45.075 L25.1875,42.425 C25.678125,41.934375 26.46875,41.934375 26.95625,42.425 L37.121875,52.590625 L60.54375,29.165625 C61.03125,28.678125 61.821875,28.678125 62.309375,29.165625 L64.9625,31.81875 C65.45,32.30625 65.45,33.096875 64.9625,33.584375 M43.75,-1.77635684e-15 C19.625,-1.77635684e-15 1.77635684e-15,19.625 1.77635684e-15,43.75 C1.77635684e-15,67.875 19.625,87.5 43.75,87.5 C67.875,87.5 87.5,67.875 87.5,43.75 C87.5,19.625 67.875,-1.77635684e-15 43.75,-1.77635684e-15" id="Fill-1"></path>
                    </g>
                </g>
            </g>
        </g>
    </g>
</svg>