<svg xmlns="http://www.w3.org/2000/svg" xmlns:xlink="http://www.w3.org/1999/xlink" fill="none" version="1.1" width="33.9444580078125" height="33.9443359375" viewBox="0 0 33.9444580078125 33.9443359375"><g transform="matrix(0.7071067690849304,-0.7071067690849304,0.7071067690849304,0.7071067690849304,-12.002343291169382,4.971533661955618)"><g><path d="M13.6391544921875,22.29136328125L13.0022744921875,22.92811328125C12.8852544921875,23.04511328125,12.8852544921875,23.23486328125,13.0022744921875,23.35186328125L17.8752544921875,28.22386328125L4.8009134921875,28.22386328125C4.6358814921875,28.22386328125,4.5008544921875,28.35811328125,4.5008544921875,28.52386328125L4.5008544921875,29.42386328125C4.5008544921875,29.58886328125,4.6358814921875,29.72386328125,4.8009134921875,29.72386328125L17.8752544921875,29.72386328125L13.0022744921875,34.59511328125C12.8852544921875,34.712913281249996,12.8852544921875,34.90181328125,13.0022744921875,35.01961328125L13.6391544921875,35.65561328125C13.7561744921875,35.77331328125,13.9459644921875,35.77331328125,14.0629844921875,35.65561328125L20.5345544921875,29.185363281249998C20.6522544921875,29.06836328125,20.6522544921875,28.87861328125,20.5345544921875,28.76161328125L14.0629844921875,22.29136328125C13.9459644921875,22.17436328125,13.7561744921875,22.17436328125,13.6391544921875,22.29136328125L13.6391544921875,22.29136328125Z" fill-rule="evenodd" fill="#787979" fill-opacity="1"/></g></g></svg>