<svg xmlns="http://www.w3.org/2000/svg" xmlns:xlink="http://www.w3.org/1999/xlink" fill="none" version="1.1" width="22" height="22" viewBox="0 0 44 44"><g transform="matrix(-1,0,0,1,88,0)"><g transform="matrix(-1,0,0,1,146.93359375,0)"><path d="M84.517696875,33.278614453125L73.627671875,22.388614453125C73.413171875,22.174114453125,73.413171875,21.826214453125,73.627671875,21.611714453125L84.517696875,10.721720453125C84.732196875,10.505845753125,85.079996875,10.505845753125,85.294496875,10.721720453125L86.46189687500001,11.887724453125C86.676396875,12.103594453125,86.676396875,12.451474453125,86.46189687500001,12.665974453125L77.127046875,21.999514453125002L86.46189687500001,31.334314453125C86.676396875,31.548814453125,86.676396875,31.896714453125,86.46189687500001,32.111214453125L85.294496875,33.278614453125C85.079996875,33.493114453125,84.732196875,33.493114453125,84.517696875,33.278614453125L84.517696875,33.278614453125Z" fill-rule="evenodd" fill="#1F2024" fill-opacity="1"/></g></g></svg>